<?xml version="1.0" encoding="UTF-8" standalone="no" ?>
<!DOCTYPE svg PUBLIC "-//W3C//DTD SVG 1.1//EN" "http://www.w3.org/Graphics/SVG/1.1/DTD/svg11.dtd">
<svg xmlns="http://www.w3.org/2000/svg" xmlns:xlink="http://www.w3.org/1999/xlink" version="1.1" width="500" height="500" viewBox="0 0 500 500" xml:space="preserve">
<desc>Created with Fabric.js 3.6.3</desc>
<defs>
</defs>
<g transform="matrix(1 0 0 1 310.40392383602125 260.8188009497304)" style=""  ><path fill="#4C4C4C" opacity="1" d="M-113.14 5.54L-111.44-8.03L-113.91-8.35L-113.91-9.98L-105.99-9.98L-103.53-0.25L-102.97 2.33L-102.50-0.25L-100.06-9.98L-92.19-9.98L-92.19-8.35L-94.73-8.03L-92.86 5.52L-91.07 5.78L-91.07 7.31L-98.92 7.31L-98.92 5.78L-96.94 5.52L-97.92-4.51L-98.33-8.61L-99.15-4.89L-102.20 6.64L-105.25 6.64L-108.51-4.56L-109.58-8.63L-109.86-4.51L-110.72 5.52L-108.35 5.78L-108.35 7.31L-115.07 7.31L-115.07 5.78L-113.14 5.54Z"/><path fill="#4C4C4C" opacity="1" d="M-90.37 3.59Q-90.37 1.54-88.29 0.45Q-86.21-0.65-82.81-0.67L-82.81-0.67L-82.81-1.14Q-82.81-1.98-82.99-2.46Q-83.18-2.95-83.67-3.20Q-84.16-3.44-85.11-3.44L-85.11-3.44Q-86.25-3.44-87.15-3.17Q-88.05-2.91-89.02-2.46L-89.02-2.46L-89.81-4.14Q-89.44-4.44-88.60-4.87Q-87.77-5.30-86.59-5.62Q-85.41-5.93-84.13-5.93L-84.13-5.93Q-82.27-5.93-81.21-5.44Q-80.15-4.96-79.70-3.93Q-79.25-2.91-79.25-1.14L-79.25-1.14L-79.25 5.78L-78.04 5.78L-78.04 7.24Q-78.57 7.36-79.53 7.48Q-80.48 7.59-81.15 7.59L-81.15 7.59Q-82.04 7.59-82.33 7.34Q-82.62 7.08-82.62 6.31L-82.62 6.31L-82.62 5.78Q-83.20 6.47-84.18 7.02Q-85.16 7.57-86.44 7.57L-86.44 7.57Q-87.53 7.57-88.43 7.09Q-89.33 6.61-89.85 5.72Q-90.37 4.82-90.37 3.59L-90.37 3.59ZM-84.62 5.43Q-84.20 5.43-83.69 5.18Q-83.18 4.94-82.81 4.59L-82.81 4.59L-82.81 0.89Q-84.62 0.89-85.50 1.54Q-86.37 2.19-86.37 3.22L-86.37 3.22Q-86.37 4.26-85.90 4.85Q-85.44 5.43-84.62 5.43L-84.62 5.43Z"/><path fill="#4C4C4C" opacity="1" d="M-74.45 3.54L-73.87 5.38Q-73.71 5.64-73.11 5.85Q-72.52 6.06-71.91 6.06L-71.91 6.06Q-70.96 6.06-70.46 5.65Q-69.96 5.24-69.96 4.59L-69.96 4.59Q-69.96 3.89-70.61 3.44Q-71.26 2.98-72.75 2.33L-72.75 2.33L-73.64 1.94Q-75.15 1.26-75.91 0.29Q-76.66-0.67-76.66-2.16L-76.66-2.16Q-76.66-3.23-76.03-4.08Q-75.40-4.93-74.22-5.42Q-73.03-5.91-71.42-5.91L-71.42-5.91Q-70.31-5.91-69.49-5.77Q-68.68-5.63-67.84-5.42L-67.84-5.42Q-67.28-5.26-67.00-5.23L-67.00-5.23L-67.00-2.07L-69.07-2.07L-69.68-3.86Q-69.79-4.07-70.24-4.25Q-70.68-4.42-71.24-4.42L-71.24-4.42Q-72.12-4.42-72.63-4.04Q-73.15-3.65-73.15-3.00L-73.15-3.00Q-73.15-2.25-72.56-1.82Q-71.98-1.39-70.70-0.81L-70.70-0.81L-70.21-0.60Q-68.33 0.19-67.26 1.11Q-66.19 2.03-66.19 3.63L-66.19 3.63Q-66.19 5.36-67.56 6.46Q-68.93 7.57-71.61 7.57L-71.61 7.57Q-72.84 7.57-73.80 7.37Q-74.75 7.17-75.89 6.85L-75.89 6.85L-76.66 6.64L-76.66 3.54L-74.45 3.54Z"/><path fill="#4C4C4C" opacity="1" d="M-60.55 7.52Q-62.09 7.52-62.82 6.81Q-63.56 6.10-63.56 4.61L-63.56 4.61L-63.56-3.67L-64.98-3.67L-64.98-5.03L-64.51-5.21Q-63.95-5.40-63.53-5.61L-63.53-5.61Q-63.07-6.05-62.79-6.77L-62.79-6.77Q-62.44-7.61-62.02-9.12L-62.02-9.12L-59.85-9.12L-59.71-5.63L-56.39-5.63L-56.39-3.67L-59.67-3.67L-59.67 2.49Q-59.67 3.77-59.60 4.29Q-59.53 4.80-59.33 4.95Q-59.13 5.10-58.60 5.10L-58.60 5.10Q-57.50 5.10-56.53 4.73L-56.53 4.73L-56.04 6.20Q-56.69 6.73-57.97 7.13Q-59.25 7.52-60.55 7.52L-60.55 7.52Z"/><path fill="#4C4C4C" opacity="1" d="M-48.98 7.57Q-52.17 7.57-53.71 5.76Q-55.24 3.96-55.24 0.84L-55.24 0.84Q-55.24-1.28-54.45-2.81Q-53.66-4.35-52.23-5.15Q-50.80-5.96-48.87-5.96L-48.87-5.96Q-46.42-5.96-45.13-4.72Q-43.84-3.49-43.79-1.23L-43.79-1.23Q-43.79 0.26-44.00 1.17L-44.00 1.17L-51.29 1.17Q-51.17 3.15-50.32 4.18Q-49.47 5.22-47.94 5.22L-47.94 5.22Q-47.07 5.22-46.13 4.93Q-45.19 4.64-44.61 4.26L-44.61 4.26L-43.95 5.68Q-44.56 6.36-46.01 6.96Q-47.47 7.57-48.98 7.57L-48.98 7.57ZM-51.31-0.37L-47.49-0.37L-47.47-1.35Q-47.47-2.81-47.87-3.58Q-48.26-4.35-49.22-4.35L-49.22-4.35Q-50.19-4.35-50.73-3.50Q-51.26-2.65-51.31-0.37L-51.31-0.37Z"/><path fill="#4C4C4C" opacity="1" d="M-42.07 7.31L-42.07 5.78L-40.65 5.57L-40.65-3.19L-42.02-3.61L-42.02-5.42L-38.16-5.93L-38.09-5.93L-37.44-5.44L-37.44-4.89L-37.51-2.95L-37.44-2.95Q-37.27-3.49-36.69-4.20Q-36.11-4.91-35.21-5.43Q-34.32-5.96-33.27-5.96L-33.27-5.96Q-32.66-5.96-32.34-5.79L-32.34-5.79L-32.34-1.74Q-32.71-2.02-33.14-2.19Q-33.57-2.35-34.25-2.35L-34.25-2.35Q-35.08-2.35-35.76-2.13Q-36.44-1.91-36.83-1.63L-36.83-1.63L-36.83 5.57L-34.27 5.80L-34.27 7.31L-42.07 7.31Z"/><path fill="#4C4C4C" opacity="1" d="M-31.87-9.87L-31.87-11.22L-27.29-11.78L-27.24-11.78L-26.49-11.31L-26.49-4.51Q-25.89-5.14-25.00-5.55Q-24.12-5.96-23.12-5.96L-23.12-5.96Q-20.88-5.96-19.50-4.38Q-18.11-2.81-18.11 0.42L-18.11 0.42Q-18.11 2.45-18.96 4.08Q-19.81 5.71-21.40 6.64Q-22.98 7.57-25.10 7.57L-25.10 7.57Q-27.10 7.57-28.45 7.25Q-29.80 6.94-30.22 6.68L-30.22 6.68L-30.22-9.56L-31.87-9.87ZM-24.56-3.67Q-25.14-3.67-25.66-3.42Q-26.17-3.16-26.49-2.81L-26.49-2.81L-26.49 5.61Q-26.40 5.85-25.97 5.99Q-25.54 6.13-24.98 6.13L-24.98 6.13Q-23.68 6.13-22.91 4.75Q-22.14 3.38-22.14 0.70L-22.14 0.70Q-22.14-1.56-22.79-2.62Q-23.45-3.67-24.56-3.67L-24.56-3.67Z"/><path fill="#4C4C4C" opacity="1" d="M-10.36 7.57Q-13.55 7.57-15.09 5.76Q-16.62 3.96-16.62 0.84L-16.62 0.84Q-16.62-1.28-15.83-2.81Q-15.04-4.35-13.61-5.15Q-12.18-5.96-10.25-5.96L-10.25-5.96Q-7.80-5.96-6.51-4.72Q-5.22-3.49-5.17-1.23L-5.17-1.23Q-5.17 0.26-5.38 1.17L-5.38 1.17L-12.67 1.17Q-12.55 3.15-11.70 4.18Q-10.85 5.22-9.31 5.22L-9.31 5.22Q-8.45 5.22-7.51 4.93Q-6.57 4.64-5.99 4.26L-5.99 4.26L-5.33 5.68Q-5.94 6.36-7.39 6.96Q-8.85 7.57-10.36 7.57L-10.36 7.57ZM-12.69-0.37L-8.87-0.37L-8.85-1.35Q-8.85-2.81-9.24-3.58Q-9.64-4.35-10.59-4.35L-10.59-4.35Q-11.57-4.35-12.11-3.50Q-12.64-2.65-12.69-0.37L-12.69-0.37Z"/><path fill="#4C4C4C" opacity="1" d="M1.35 7.57Q-0.89 7.57-2.28 5.96Q-3.68 4.36-3.68 1.14L-3.68 1.14Q-3.68-0.79-2.88-2.41Q-2.07-4.02-0.50-4.99Q1.07-5.96 3.30-5.96L3.30-5.96Q3.98-5.96 4.70-5.79L4.70-5.79L4.70-9.49L2.46-9.82L2.46-11.31L7.61-11.78L7.73-11.78L8.42-11.22L8.42 5.75L9.63 5.75L9.63 7.24Q7.84 7.59 6.66 7.59L6.66 7.59Q5.84 7.59 5.48 7.32Q5.12 7.06 5.12 6.29L5.12 6.29L5.12 5.71Q4.56 6.52 3.51 7.05Q2.46 7.57 1.35 7.57L1.35 7.57ZM2.74 5.47Q3.40 5.47 3.90 5.21Q4.40 4.94 4.70 4.57L4.70 4.57L4.70-3.86Q4.54-4.07 4.11-4.21Q3.68-4.35 3.19-4.35L3.19-4.35Q1.88-4.35 1.11-3.10Q0.35-1.86 0.35 0.96L0.35 0.96Q0.35 3.26 1.00 4.37Q1.65 5.47 2.74 5.47L2.74 5.47Z"/><path fill="#4C4C4C" opacity="1" d="M11.19 7.31L11.19 5.78L12.61 5.57L12.61-3.19L11.24-3.61L11.24-5.42L15.11-5.93L15.18-5.93L15.83-5.44L15.83-4.89L15.76-2.95L15.83-2.95Q15.99-3.49 16.57-4.20Q17.15-4.91 18.05-5.43Q18.95-5.96 19.99-5.96L19.99-5.96Q20.60-5.96 20.93-5.79L20.93-5.79L20.93-1.74Q20.55-2.02 20.12-2.19Q19.69-2.35 19.02-2.35L19.02-2.35Q18.18-2.35 17.50-2.13Q16.83-1.91 16.43-1.63L16.43-1.63L16.43 5.57L18.99 5.80L18.99 7.31L11.19 7.31Z"/><path fill="#4C4C4C" opacity="1" d="M22.42 0.91Q22.42-1.32 23.30-2.87Q24.18-4.42 25.69-5.19Q27.19-5.96 28.98-5.96L28.98-5.96Q31.91-5.96 33.58-4.20Q35.24-2.44 35.24 0.70L35.24 0.70Q35.24 3.01 34.36 4.54Q33.47 6.08 31.98 6.82Q30.49 7.57 28.65 7.57L28.65 7.57Q25.74 7.57 24.08 5.81Q22.42 4.05 22.42 0.91L22.42 0.91ZM28.89 5.94Q30.00 5.94 30.55 4.74Q31.10 3.54 31.10 0.98L31.10 0.98Q31.10-1.74 30.57-3.03Q30.05-4.33 28.82-4.33L28.82-4.33Q26.54-4.33 26.54 0.63L26.54 0.63Q26.54 3.33 27.09 4.64Q27.65 5.94 28.89 5.94L28.89 5.94Z"/><path fill="#4C4C4C" opacity="1" d="M37.36 0.91Q37.36-1.32 38.25-2.87Q39.13-4.42 40.63-5.19Q42.13-5.96 43.93-5.96L43.93-5.96Q46.86-5.96 48.52-4.20Q50.19-2.44 50.19 0.70L50.19 0.70Q50.19 3.01 49.30 4.54Q48.42 6.08 46.93 6.82Q45.44 7.57 43.60 7.57L43.60 7.57Q40.69 7.57 39.03 5.81Q37.36 4.05 37.36 0.91L37.36 0.91ZM43.83 5.94Q44.95 5.94 45.50 4.74Q46.04 3.54 46.04 0.98L46.04 0.98Q46.04-1.74 45.52-3.03Q45.00-4.33 43.76-4.33L43.76-4.33Q41.48-4.33 41.48 0.63L41.48 0.63Q41.48 3.33 42.04 4.64Q42.60 5.94 43.83 5.94L43.83 5.94Z"/><path fill="#4C4C4C" opacity="1" d="M52.31 7.31L52.31 5.78L53.54 5.57L53.54-3.19L52.17-3.61L52.17-5.42L56.40-5.93L56.59-5.84L57.05-5.19L57.05-4.02Q57.80-4.79 59.24-5.34Q60.69-5.89 61.71-5.89L61.71-5.89Q62.97-5.89 63.75-5.47Q64.53-5.05 64.92-4.16L64.92-4.16Q65.71-4.91 66.91-5.40Q68.11-5.89 69.35-5.89L69.35-5.89Q71.39-5.89 72.29-4.70Q73.19-3.51 73.19-0.81L73.19-0.81L73.19 5.57L74.58 5.78L74.58 7.31L68.28 7.31L68.28 5.78L69.32 5.57L69.32-0.72Q69.32-2.39 68.94-3.05Q68.55-3.70 67.53-3.70L67.53-3.70Q66.46-3.70 65.30-2.79L65.30-2.79Q65.44-1.93 65.44-0.81L65.44-0.81L65.44 5.57L66.74 5.78L66.74 7.31L60.38 7.31L60.38 5.78L61.55 5.57L61.55-0.79Q61.55-2.44 61.19-3.07Q60.83-3.70 59.83-3.70L59.83-3.70Q59.17-3.70 58.53-3.41Q57.89-3.12 57.43-2.70L57.43-2.70L57.43 5.57L58.68 5.78L58.68 7.31L52.31 7.31Z"/></g><g transform="matrix(0.7303744594057179 0 0 0.730374459405718 149 250.58116871737565)"  >
<path style="stroke: none; stroke-width: 0; stroke-dasharray: none; stroke-linecap: butt; stroke-dashoffset: 0; stroke-linejoin: miter; stroke-miterlimit: 4; fill: rgb(76,76,76); fill-rule: nonzero; opacity: 1;"  transform=" translate(-50.94409171162501, -50.756911)" d="m 97.98 55.758 c -1.0117 -4.7461 -2.7266 -9.3945 -5.2539 -14.242 c -0.70703 -1.4141 -1.8164 -2.4258 -3.1328 -3.1328 l 0.003906 -15.152 c 0 -4.5469 -3.6367 -8.1836 -8.1836 -8.1836 l -61.414 0.003906 c -4.5469 0 -8.1836 3.6367 -8.1836 8.1836 v 15.051 c -1.3125 0.60547 -2.3242 1.6172 -3.0312 2.9297 c -1.918 3.6367 -3.332 8.082 -4.5469 14.039 v 0.50391 c -0.60547 0.80859 -1.0117 1.8164 -1.1094 2.7266 c -0.40234 4.9492 0.20312 8.4844 4.4453 10.102 v 3.5352 c 0 0.91016 0.30469 1.8164 0.70703 2.5234 c -0.50391 0.70703 -0.70703 1.6172 -0.70703 2.5234 v 4.4453 c 0 2.625 2.2227 4.8477 4.8477 4.8477 l 76.469 0.003906 c 2.625 0 4.8477 -2.2227 4.8477 -4.8477 v -3.9375 c 0 -0.91016 -0.30469 -1.918 -0.80859 -2.7266 c 0.60547 -0.80859 0.91016 -1.7188 0.91016 -2.8281 v -4.3438 c 1.8164 -0.20312 3.1328 -0.91016 3.9375 -2.0195 c 1.4141 -1.9219 1.4141 -4.8516 0.20312 -10.004 z m -77.98 -38.688 h 61.414 c 3.4336 0 6.1602 2.7266 6.1602 6.1602 v 14.344 c -2.5234 -0.70703 -5.1523 -1.4141 -7.6758 -2.0195 v -7.4766 c 0 -2.8281 -2.3242 -5.1523 -5.1523 -5.1523 l -16.363 0.003907 c -2.8281 0 -5.1523 2.3242 -5.1523 5.1523 v 4.2422 h -5.2539 v -4.2422 c 0 -2.8281 -2.3242 -5.1523 -5.1523 -5.1523 h -16.461 c -2.8281 0 -5.1523 2.3242 -5.1523 5.1523 v 7.6758 c -2.4258 0.60547 -4.9492 1.2109 -7.375 1.918 l 0.003906 -14.445 c 0 -3.4336 2.7266 -6.1602 6.1602 -6.1602 z m 57.879 18.082 c -7.4766 -1.6172 -15.051 -2.5234 -22.625 -2.7266 v -4.2422 c 0 -1.7188 1.4141 -3.1328 3.1328 -3.1328 h 16.359 c 1.7188 0 3.1328 1.4141 3.1328 3.1328 z m -31.918 -2.7266 c -7.5742 0.30469 -15.152 1.3125 -22.727 2.9297 v -7.1719 c 0 -1.7188 1.4141 -3.1328 3.1328 -3.1328 h 16.465 c 1.7188 0 3.1328 1.4141 3.1328 3.1328 z m 45.855 39.695 c 0 1.5156 -1.3125 2.8281 -2.8281 2.8281 h -76.465 c -1.5156 0 -2.8281 -1.3125 -2.8281 -2.8281 v -7.9805 c 0 -1.7188 0.70703 -3.4336 1.918 -4.7461 c 1.5156 -1.5156 3.5352 -2.3242 5.6562 -2.3242 h 66.867 c 4.0391 0 7.6758 3.332 7.6758 7.1719 z m -0.097656 9.4961 c 0 1.5156 -1.3125 2.8281 -2.8281 2.8281 h -76.367 c -1.5156 0 -2.8281 -1.3125 -2.8281 -2.8281 v -4.4453 c 0 -0.40234 0.10156 -0.70703 0.20313 -1.0117 c 0.80859 0.50391 1.6172 0.80859 2.625 0.80859 h 76.465 c 0.91016 0 1.7188 -0.20312 2.4258 -0.70703 c 0.20313 0.40234 0.30469 0.91016 0.30469 1.4141 z m 4.4414 -17.07 c -0.50391 0.60547 -1.2109 1.0117 -2.3242 1.2109 v -1.6172 c 0 -4.8477 -4.5469 -9.1914 -9.6953 -9.1914 h -66.867 c -2.625 0 -5.2539 1.1094 -7.0703 3.0312 c -1.7188 1.7188 -2.625 3.9375 -2.5234 6.1602 v 2.2227 c -2.2227 -1.1094 -2.8281 -3.2305 -2.4258 -7.7773 c 0.10156 -0.91016 0.60547 -1.918 1.4141 -2.5234 c 4.8477 -3.7383 12.121 -5.9609 22.93 -7.2734 c 0.50391 -0.10156 0.91016 -0.60547 0.91016 -1.1094 c -0.10156 -0.50391 -0.60547 -0.91016 -1.1094 -0.91016 c -10.402 1.2109 -17.676 3.4336 -22.727 6.7695 c 1.0117 -4.7461 2.3242 -8.4844 3.9375 -11.516 c 0.60547 -1.1094 1.6172 -2.0195 2.8281 -2.3242 c 24.949 -7.375 49.898 -7.375 74.141 -0.20312 c 1.5156 0.40234 2.625 1.4141 3.332 2.7266 c 2.4258 4.6445 4.0391 9.1914 5.0508 13.84 c 1.1094 4.543 1.2109 7.168 0.19922 8.4844 z" stroke-linecap="round" />
</g>
</svg>